<mxfile host="app.diagrams.net" modified="2021-07-10T20:20:55.175Z" agent="5.0 (Macintosh; Intel Mac OS X 10_15_7) AppleWebKit/537.36 (KHTML, like Gecko) Chrome/91.0.4472.114 Safari/537.36" etag="g7QY3SuUhk0TechdY3e_" version="14.8.5" type="github">
  <diagram id="fY13pZR8vUbDBjP7I7lo" name="Page-1">
    <mxGraphModel dx="1994" dy="1119" grid="1" gridSize="10" guides="1" tooltips="1" connect="1" arrows="0" fold="1" page="1" pageScale="1" pageWidth="850" pageHeight="1100" math="0" shadow="0">
      <root>
        <mxCell id="0" />
        <mxCell id="1" parent="0" />
        <mxCell id="33Y8yaj1-EDUTj26Vm04-1" value="&lt;span style=&quot;background-color: rgb(126 , 166 , 224)&quot;&gt;user opens program&lt;/span&gt;" style="rounded=1;whiteSpace=wrap;html=1;" vertex="1" parent="1">
          <mxGeometry x="-810" y="30" width="120" height="60" as="geometry" />
        </mxCell>
        <mxCell id="33Y8yaj1-EDUTj26Vm04-13" value="&lt;span style=&quot;background-color: rgb(181 , 115 , 157)&quot;&gt;program shows user the lipsticks that fall under selected tag category, then prompts user again.&lt;br&gt;&lt;br&gt;&amp;nbsp;They can go back to the main menu, tag menu, or exit the program&lt;/span&gt;" style="shape=trapezoid;perimeter=trapezoidPerimeter;whiteSpace=wrap;html=1;fixedSize=1;rounded=1;" vertex="1" parent="1">
          <mxGeometry x="-770" y="850" width="290" height="80" as="geometry" />
        </mxCell>
        <mxCell id="33Y8yaj1-EDUTj26Vm04-18" value="&lt;span style=&quot;background-color: rgb(181 , 115 , 157)&quot;&gt;program gives user menu of brand options&lt;/span&gt;" style="ellipse;shape=cloud;whiteSpace=wrap;html=1;rounded=1;" vertex="1" parent="1">
          <mxGeometry x="-380" y="350" width="120" height="80" as="geometry" />
        </mxCell>
        <mxCell id="33Y8yaj1-EDUTj26Vm04-22" value="user selects a brand" style="rhombus;whiteSpace=wrap;html=1;rounded=1;" vertex="1" parent="1">
          <mxGeometry x="240" y="410" width="80" height="80" as="geometry" />
        </mxCell>
        <mxCell id="33Y8yaj1-EDUTj26Vm04-26" value="program displays list of selected brand, then prompts user again. they can go back to the main menu, brand menu, or exit the program." style="ellipse;whiteSpace=wrap;html=1;rounded=1;" vertex="1" parent="1">
          <mxGeometry x="165" y="630" width="230" height="80" as="geometry" />
        </mxCell>
        <mxCell id="33Y8yaj1-EDUTj26Vm04-36" value="user exits program" style="shape=tape;whiteSpace=wrap;html=1;" vertex="1" parent="1">
          <mxGeometry x="660" y="280" width="120" height="100" as="geometry" />
        </mxCell>
        <mxCell id="33Y8yaj1-EDUTj26Vm04-37" value="user selects View all Lipsticks" style="ellipse;whiteSpace=wrap;html=1;aspect=fixed;" vertex="1" parent="1">
          <mxGeometry x="270" y="100" width="80" height="80" as="geometry" />
        </mxCell>
        <mxCell id="33Y8yaj1-EDUTj26Vm04-38" value="program gives user a shortened list, then prompts user again. they can go to the main menu, exit the program, or see the rest of the list&lt;br&gt;&amp;nbsp;" style="shape=hexagon;perimeter=hexagonPerimeter2;whiteSpace=wrap;html=1;fixedSize=1;" vertex="1" parent="1">
          <mxGeometry x="615" y="20" width="120" height="80" as="geometry" />
        </mxCell>
        <mxCell id="33Y8yaj1-EDUTj26Vm04-42" value="user asks for the rest of the list" style="ellipse;whiteSpace=wrap;html=1;" vertex="1" parent="1">
          <mxGeometry x="425" y="200" width="120" height="60" as="geometry" />
        </mxCell>
        <mxCell id="33Y8yaj1-EDUTj26Vm04-44" value="program warns user that the list is about 125 items long, they&#39;re prompted to choose between seeing the list or returning to the main menu" style="ellipse;shape=cloud;whiteSpace=wrap;html=1;" vertex="1" parent="1">
          <mxGeometry x="390" y="330" width="225" height="100" as="geometry" />
        </mxCell>
        <mxCell id="33Y8yaj1-EDUTj26Vm04-48" value="&lt;font style=&quot;font-size: 9px&quot;&gt;user chooses to view list&lt;/font&gt;" style="shape=trapezoid;perimeter=trapezoidPerimeter;whiteSpace=wrap;html=1;fixedSize=1;" vertex="1" parent="1">
          <mxGeometry x="420" y="450" width="120" height="20" as="geometry" />
        </mxCell>
        <mxCell id="33Y8yaj1-EDUTj26Vm04-52" value="program asks user, main menu or exit program" style="ellipse;shape=cloud;whiteSpace=wrap;html=1;" vertex="1" parent="1">
          <mxGeometry x="440" y="550" width="190" height="70" as="geometry" />
        </mxCell>
        <mxCell id="33Y8yaj1-EDUTj26Vm04-58" value="user chooses main menu" style="shape=trapezoid;perimeter=trapezoidPerimeter;whiteSpace=wrap;html=1;fixedSize=1;" vertex="1" parent="1">
          <mxGeometry x="300" y="230" width="120" height="30" as="geometry" />
        </mxCell>
        <mxCell id="33Y8yaj1-EDUTj26Vm04-61" value="&lt;span style=&quot;background-color: rgb(181 , 115 , 157)&quot;&gt;&lt;font style=&quot;font-size: 12px&quot;&gt;program greets user with main menu of options(search by tag, brand, view all lipsticks on site, exit program&lt;/font&gt;&lt;/span&gt;" style="ellipse;shape=cloud;html=1;whiteSpace=wrap;" vertex="1" parent="1">
          <mxGeometry x="-840" y="120" width="230" height="120" as="geometry" />
        </mxCell>
        <mxCell id="33Y8yaj1-EDUTj26Vm04-63" value="&lt;span style=&quot;background-color: rgb(181 , 115 , 157)&quot;&gt;&lt;font style=&quot;font-size: 12px&quot;&gt;program gives user menu of tag options&lt;/font&gt;&lt;/span&gt;" style="ellipse;shape=cloud;whiteSpace=wrap;html=1;" vertex="1" parent="1">
          <mxGeometry x="-840" y="490" width="230" height="90" as="geometry" />
        </mxCell>
        <mxCell id="33Y8yaj1-EDUTj26Vm04-65" value="&lt;span style=&quot;background-color: rgb(126 , 166 , 224)&quot;&gt;user selects Search by Tag option&lt;/span&gt;" style="rounded=1;whiteSpace=wrap;html=1;" vertex="1" parent="1">
          <mxGeometry x="-830" y="330" width="120" height="60" as="geometry" />
        </mxCell>
        <mxCell id="33Y8yaj1-EDUTj26Vm04-66" value="&lt;span style=&quot;background-color: rgb(126 , 166 , 224)&quot;&gt;user selects a tag&amp;nbsp;&lt;/span&gt;" style="rounded=1;whiteSpace=wrap;html=1;" vertex="1" parent="1">
          <mxGeometry x="-820" y="710" width="120" height="60" as="geometry" />
        </mxCell>
        <mxCell id="33Y8yaj1-EDUTj26Vm04-67" value="&lt;span style=&quot;background-color: rgb(126 , 166 , 224)&quot;&gt;user chooses to return to main menu&lt;br&gt;&lt;/span&gt;" style="rounded=1;whiteSpace=wrap;html=1;" vertex="1" parent="1">
          <mxGeometry x="-200" y="730" width="120" height="60" as="geometry" />
        </mxCell>
        <mxCell id="33Y8yaj1-EDUTj26Vm04-68" value="&lt;span style=&quot;background-color: rgb(126 , 166 , 224)&quot;&gt;user chooses to return to tag menu&lt;br&gt;&lt;/span&gt;" style="rounded=1;whiteSpace=wrap;html=1;" vertex="1" parent="1">
          <mxGeometry x="-545" y="590" width="120" height="60" as="geometry" />
        </mxCell>
        <mxCell id="33Y8yaj1-EDUTj26Vm04-69" value="&lt;span style=&quot;background-color: rgb(126 , 166 , 224)&quot;&gt;user selects Search by Brand&amp;nbsp;option&lt;/span&gt;" style="rounded=1;whiteSpace=wrap;html=1;" vertex="1" parent="1">
          <mxGeometry x="-500" y="215" width="120" height="60" as="geometry" />
        </mxCell>
      </root>
    </mxGraphModel>
  </diagram>
</mxfile>
